<svg width="20" height="20" viewBox="0 0 20 20" fill="none" xmlns="http://www.w3.org/2000/svg">
<path d="M12.8283 7.70431L10.909 9.62346V4.54546C10.909 4.04334 10.5019 3.63637 9.99987 3.63637C9.49781 3.63637 9.09078 4.04334 9.09078 4.54546V9.62346L7.17169 7.70431C6.81672 7.34934 6.24108 7.34934 5.88605 7.70431C5.53102 8.0594 5.53102 8.63491 5.88605 8.98994L9.35702 12.4609C9.53454 12.6385 9.76721 12.7273 9.99981 12.7273C10.2324 12.7273 10.4651 12.6385 10.6427 12.461L14.1139 8.99006C14.4688 8.63509 14.4689 8.05946 14.1139 7.70431C13.7588 7.34934 13.1833 7.34934 12.8283 7.70431Z" fill="black"/>
<path d="M11.8182 14.5455H8.18183C7.67977 14.5455 7.27274 14.9524 7.27274 15.4545C7.27274 15.9565 7.67977 16.3636 8.18183 16.3636H11.8182C12.3203 16.3636 12.7273 15.9565 12.7273 15.4545C12.7273 14.9524 12.3203 14.5455 11.8182 14.5455Z" fill="black"/>
</svg>
