<svg width="20" height="20" viewBox="0 0 20 20" fill="none" xmlns="http://www.w3.org/2000/svg">
<path d="M5.65439 8.13868L5.38781 8.39366L5.55279 8.72361C6.77164 11.1613 8.85194 13.1486 11.2639 14.4407L11.5911 14.616L11.8536 14.3536L13.6869 12.5202C13.7554 12.4517 13.8181 12.4238 13.8548 12.416C13.872 12.4123 13.8813 12.4133 13.8839 12.4138C13.8858 12.4141 13.8868 12.4143 13.8893 12.416L13.9393 12.4494L13.9958 12.4699C14.973 12.8252 16.0315 13 17.1667 13C17.303 13 17.3778 13.0433 17.4173 13.0827C17.4567 13.1222 17.5 13.197 17.5 13.3333V16.1667C17.5 16.303 17.4567 16.3778 17.4173 16.4173C17.3778 16.4567 17.303 16.5 17.1667 16.5C9.60948 16.5 3.5 10.3905 3.5 2.83333C3.5 2.69696 3.54328 2.62216 3.58272 2.58272C3.62216 2.54328 3.69696 2.5 3.83333 2.5H6.75C6.88638 2.5 6.96117 2.54328 7.00061 2.58272C7.04006 2.62216 7.08333 2.69696 7.08333 2.83333C7.08333 3.88992 7.25959 4.94324 7.60899 5.99145C7.62531 6.04041 7.6178 6.18951 7.52609 6.34836L5.65439 8.13868Z" stroke="black"/>
</svg>
